<?xml version="1.0" encoding="UTF-8"?>
<!DOCTYPE svg PUBLIC "-//W3C//DTD SVG 1.1//EN" "http://www.w3.org/Graphics/SVG/1.1/DTD/svg11.dtd">
    <svg xmlns="http://www.w3.org/2000/svg" width="56px" height="56px" xmlns:xlink="http://www.w3.org/1999/xlink" version="1.1" id="Capa_1" x="0px" y="0px" viewBox="0 0 202.5 224" style="enable-background:new 0 0 202.5 224;" xml:space="preserve">
        <style type="text/css">
            .st0{fill:#75CE41;}
            .st1{fill:#D33541;}
        </style>
        <g>
            <path class="st0" d="M136.8,121.1c-5.4,46.8-51.4,62.2-66.6,76.2c-15.2,14-12.5,23.4-12.5,23.4c21.1-30.3,35-25.2,61.2-50.1   s26.7-52.1,26.7-52.1v-13.2c0,0-0.5-27.2-26.7-52.1S78.8,33.6,57.7,3.2c0,0-2.7,9.4,12.5,23.4s61.2,29.4,66.6,76.2V121.1z"/>
            <path class="st1" d="M19.6,114.5H153v7l-0.6,1.6l30.5-10.3l-30.5-12.1l0.6,1.7v4.6l11.1,2.4v1H24.8C24.8,110.5,21.6,111,19.6,114.5   z"/>
        </g>
    </svg>
